<svg id="Layer_1" data-name="Layer 1" xmlns="http://www.w3.org/2000/svg" viewBox="0 0 327.47 61.39"><defs><style>.cls-1{opacity:0.7;}.cls-2{fill:#2c358c;}</style></defs><title>astronergy</title><g class="cls-1"><path class="cls-2" d="M171.83,447.9c-.2,0-.41.11-.63.16a6.51,6.51,0,0,0,.91-.2A1.14,1.14,0,0,1,171.83,447.9Zm-1.18.27.54-.11-.63.11Zm-.77.09.36,0h.07l.07,0a8.31,8.31,0,0,1-1,.07Zm-6.8.23a11.53,11.53,0,0,0,1.25.11c.43,0,.84,0,1.27,0a24.28,24.28,0,0,0,4.28-.36,26.44,26.44,0,0,1-4.28.34C164.76,448.6,163.9,448.56,163.09,448.49Zm-2.45-.32a30.22,30.22,0,0,1-3.56-.88A23.32,23.32,0,0,0,160.64,448.17Z" transform="translate(-134.91 -389.72)"/><path class="cls-2" d="M253.67,411.88h8.28v21.6h5.87v-21.6h8.5v-4.29H253.67Zm40.44,10.69c5-.09,7.71-3.37,7.8-7.41,0-5.17-3.51-7.63-8.85-7.63H278.48v4.3h14.06c2.5,0,3.72,1.44,3.72,3.2s-1,3.24-3.89,3.24H278.48v15.25h5.46V422.65H287a3.55,3.55,0,0,1,2,.61c1.49,1.19,5.91,8.59,7.06,10.26h6.79l-4.56-7c-1.36-2.15-2.5-3.73-4.21-3.95m-81.85-15-9.86,26h6.09l2.11-6h11.83l2.36,6h6.13l-9.86-26Zm-.05,15.11L216.6,411v0L221,422.7Zm29.49-5.08c-2.55-.56-5.21-1.36-5.12-3.42s2.54-2.76,5.31-2.76c1.61,0,4.19.34,5.06,2.54h5.57c-1-5.43-5.48-7.05-10.6-7.05-2.8,0-6,.35-8.19,2a6.72,6.72,0,0,0-1.36,9.16c1.67,2.32,5.17,3.25,8.58,3.91,1.76.31,6.89,1.19,6.89,3.94s-3.32,3.37-5.61,3.45c-3.07.06-5.83-.78-6.44-4.46h-5.61c.7,6.49,5.39,9,11.92,9,3.51,0,7.36-1,9.46-3.46,2-2.32,2.33-6.13.36-8.54-2.29-2.91-6.79-3.61-10.21-4.35m119.93,16h21.25v-4.29H367.07v-6.76h13.72v-4.2H367.07v-6.4h15.82v-4.33H361.64Zm63.62-22.13c2.76.13,5.48,1.09,6.53,3.73l5.84-.14c-1.89-4.91-5.79-8.14-12.45-8.14-8.78,0-14,5.08-14,13.5,0,5.81,2.72,10.42,7.62,12.48a17.56,17.56,0,0,0,6.75,1.14,14.87,14.87,0,0,0,8.67-2.64,11.48,11.48,0,0,0,3.43-3.94V418.5h-13v4.33h7.67v3.34c-.3.35-.65.68-1,1-2.76,2.67-9.38,2.9-12,0-3-3.42-3.33-10.39,0-13.63a7.94,7.94,0,0,1,5.92-2.1m31.07-3.85-6.88,11.29-6.92-11.29h-6l10.16,16v10h5.71V423.4l10-15.81Zm-55.21,15c5-.09,8.23-3.38,8.29-7.4.08-5.18-3.47-7.62-8.81-7.62H385.48v4.29H400c2.54,0,3.76,1.46,3.73,3.2s-1,3.25-3.86,3.25H385.48v15.25H391V422.7h3.11a3.47,3.47,0,0,1,2,.62c1.48,1.18,5.91,8.58,7.06,10.24h6.78l-4.56-7c-1.36-2.14-2.5-3.72-4.2-3.94m-52.37-15H334v26h5.34V411.88h8.38c6.09,0,5.74,3.11,5.74,7.05l0,14.64h5.38V418.88c.31-7.75-2-11.35-10.12-11.29m-30.85-.67h-.14c-4.38,0-7.8,1.18-10.24,3.59s-3.7,5.65-3.7,9.95a14.68,14.68,0,0,0,1.85,7.62,11.24,11.24,0,0,0,4.87,4.44,17.37,17.37,0,0,0,7.36,1.4h.18a15.26,15.26,0,0,0,7.5-1.63,11.1,11.1,0,0,0,4.61-4.56,15.29,15.29,0,0,0,1.62-7.49c0-4.21-1.23-7.49-3.64-9.82s-5.84-3.46-10.26-3.5m5.84,20.51a8.75,8.75,0,0,1-5.84,2.06c-2.32,0-4.64-.61-5.91-2.1-3-3.46-3.25-10.61,0-13.85a8.22,8.22,0,0,1,5.91-2.06,8.84,8.84,0,0,1,5.74,2.06c3.5,3.11,3.2,10.83.09,13.89" transform="translate(-134.91 -389.72)"/><path class="cls-2" d="M157.08,447.29a30.22,30.22,0,0,0,3.56.88A23.32,23.32,0,0,1,157.08,447.29Z" transform="translate(-134.91 -389.72)"/><path class="cls-2" d="M169.89,448.26a24.28,24.28,0,0,1-4.28.36c-.43,0-.84,0-1.27,0a11.53,11.53,0,0,1-1.25-.11c.82.07,1.68.11,2.51.11A26.44,26.44,0,0,0,169.89,448.26Z" transform="translate(-134.91 -389.72)"/><path class="cls-2" d="M171.83,447.9c-.2,0-.41.11-.63.16a6.51,6.51,0,0,0,.91-.2A1.14,1.14,0,0,1,171.83,447.9Zm-1.18.27.54-.11-.63.11Zm-7.57.32a11.53,11.53,0,0,0,1.25.11c.43,0,.84,0,1.27,0a24.28,24.28,0,0,0,4.28-.36,26.44,26.44,0,0,1-4.28.34C164.76,448.6,163.9,448.56,163.09,448.49Zm-2.45-.32a30.22,30.22,0,0,1-3.56-.88A23.32,23.32,0,0,0,160.64,448.17Z" transform="translate(-134.91 -389.72)"/><path class="cls-2" d="M165.6,389.72a30.7,30.7,0,1,0,30.74,30.7A30.74,30.74,0,0,0,165.6,389.72Zm-2.51,58.77-1.22-.14c-.41,0-.82-.11-1.22-.18a23.32,23.32,0,0,1-3.56-.88c-.39-.11-.77-.25-1.16-.39a27.76,27.76,0,0,1-3.74-1.7,28.11,28.11,0,0,1-14.45-29,7.9,7.9,0,0,0,.25,2.11,6.87,6.87,0,0,0,.54,1.45c1.9,3.22,4.85,3.65,7.75,3.65h2.56l10.51,0c2.81,0,3.35.54,3.35,3.53v14a8.85,8.85,0,0,0,.77,3.85,6.09,6.09,0,0,0,1.86,2.27,5.9,5.9,0,0,0,1.74.84,5.28,5.28,0,0,0,.82.18,3,3,0,0,0,.63.07,4.92,4.92,0,0,0,.82,0,8.31,8.31,0,0,0,1-.07l-.07,0h-.07l-.36,0a24.28,24.28,0,0,1-4.28.36c-.43,0-.84,0-1.27,0A11.53,11.53,0,0,1,163.09,448.49Zm30.4-23.7a7.32,7.32,0,0,0-.79-3.76c-1.88-3.22-4.83-3.65-7.73-3.65h-2.56l-10.53,0c-2.81,0-3.33-.57-3.33-3.53v-14a9.19,9.19,0,0,0-.77-3.85,6.16,6.16,0,0,0-1.88-2.27,5.64,5.64,0,0,0-1.74-.84,4.89,4.89,0,0,0-1-.23,8.84,8.84,0,0,0-2.56,0,28.2,28.2,0,0,1,33.23,27.75A27.79,27.79,0,0,1,193.49,424.79Zm-34.14-4.4-10.78,0a17.06,17.06,0,0,1,16.95-17.06v10.51c0,4.67,1.86,6.57,6.39,6.57l10.78,0a17.06,17.06,0,0,1-16.95,17.06V427C165.74,422.3,163.88,420.4,159.35,420.4Zm11.21,27.77.63-.11c.23,0,.43-.11.63-.16a1.14,1.14,0,0,0,.27,0,6.51,6.51,0,0,1-.91.2l-.54.11Z" transform="translate(-134.91 -389.72)"/></g></svg>